<svg id="Capa_1" enable-background="new 0 0 510 510" height="512" viewBox="0 0 510 510" width="512" xmlns="http://www.w3.org/2000/svg"><g><path d="m430 130.46v34.54h-50v125h-50v-290h13.03z" fill="#e40058"/><path d="m330 0v290h-50v-125h-50v-34.54l86.97-130.46z" fill="#ff4a4a"/><path d="m510 240v270h-180v-269.85c1.61-.1 3.27-.15 4.99-.15 25.27 0 38.63 10.69 49.38 19.29 9.22 7.38 15.89 12.71 30.63 12.71s21.4-5.33 30.63-12.71c10.74-8.6 24.11-19.29 49.37-19.29z" fill="#2681ff"/><path d="m330 240.15v269.85h-195v-239l-9.37-11.72c10.74-8.59 24.1-19.28 49.37-19.28 25.26 0 38.62 10.69 49.37 19.29 9.22 7.38 15.89 12.71 30.62 12.71 14.74 0 21.41-5.33 30.63-12.71 10.01-8.01 22.3-17.84 44.38-19.14z" fill="#6aa8ff"/><path d="m0 0v510h135v-60l-9.37-15 9.37-15v-30l-9.37-15 9.37-15v-30l-9.37-15 9.37-15v-30l-9.37-15 9.37-15v-30l-15.98-17.02 15.98-12.98v-30l-9.37-15 9.37-15v-30l-10.99-15 10.99-15v-60z" fill="#fff37d"/><g fill="#ffc377"><path d="m75 60h60v30h-60z"/><path d="m75 180h60v30h-60z"/><path d="m75 300h60v30h-60z"/><path d="m75 420h60v30h-60z"/><path d="m90 120h45v30h-45z"/><path d="m90 240h45v30h-45z"/><path d="m90 360h45v30h-45z"/></g></g></svg>